<?xml version="1.0" encoding="UTF-8"?>
<svg width="28px" height="28px" viewBox="0 0 28 28" version="1.1" xmlns="http://www.w3.org/2000/svg" xmlns:xlink="http://www.w3.org/1999/xlink">
    <title>youtube (6)</title>
    <g id="UI-Desktop" stroke="none" stroke-width="1" fill="none" fill-rule="evenodd">
        <g id="Page-prestation---cas-devis-payant" transform="translate(-204.000000, -1159.000000)" fill="#CD201F" fill-rule="nonzero">
            <g id="Group-10" transform="translate(0.000000, 178.000000)">
                <g id="Group-11" transform="translate(39.500000, 86.000000)">
                    <g id="Group-13" transform="translate(0.500000, 895.000000)">
                        <g id="youtube-(6)" transform="translate(164.000000, 0.000000)">
                            <polygon id="Path" points="12.2561951 16.6228638 16.8102112 14 12.2561951 11.3771362"></polygon>
                            <path d="M14,0 C6.26919557,0 0,6.26919557 0,14 C0,21.7308044 6.26919557,28 14,28 C21.7308044,28 28,21.7308044 28,14 C28,6.26919557 21.7308044,0 14,0 Z M22.747939,14.0143128 C22.747939,14.0143128 22.747939,16.8535767 22.3876953,18.2226868 C22.1858215,18.9720764 21.5949402,19.5629578 20.8455505,19.7646179 C19.4764404,20.125 14,20.125 14,20.125 C14,20.125 8.53787233,20.125 7.15444948,19.7503052 C6.40505983,19.548645 5.81417845,18.9575501 5.61230469,18.2081604 C5.25192259,16.8535767 5.25192259,14 5.25192259,14 C5.25192259,14 5.25192259,11.1609497 5.61230469,9.79183959 C5.81396484,9.04244994 6.41937253,8.43704225 7.15444948,8.23538209 C8.52355957,7.875 14,7.875 14,7.875 C14,7.875 19.4764404,7.875 20.8455505,8.2496948 C21.5949402,8.45135495 22.1858215,9.04244994 22.3876953,9.79183959 C22.7623901,11.1609497 22.747939,14.0143128 22.747939,14.0143128 L22.747939,14.0143128 Z" id="Shape"></path>
                        </g>
                    </g>
                </g>
            </g>
        </g>
    </g>
</svg>